# 3ds Max Wavefront OBJ Exporter v0.97b - (c)2007 guruware
# File Created: 02.12.2015 05:14:01

mtllib flare.mtl

#
# object Flare
#

v  0.0780 -0.4054 0.0000
v  0.0551 -0.4054 -0.0551
v  0.0551 -0.1714 -0.0551
v  0.0780 -0.1714 -0.0000
v  -0.0000 -0.4054 -0.0780
v  -0.0000 -0.1714 -0.0780
v  -0.0551 -0.4054 -0.0551
v  -0.0551 -0.1714 -0.0551
v  -0.0780 -0.4054 0.0000
v  -0.0780 -0.1714 -0.0000
v  -0.0551 -0.4054 0.0551
v  -0.0551 -0.1714 0.0551
v  0.0000 -0.4054 0.0780
v  0.0000 -0.1714 0.0780
v  0.0551 -0.4054 0.0551
v  0.0551 -0.1714 0.0551
v  0.0551 0.4054 -0.0551
v  -0.0000 0.4054 -0.0780
v  -0.0551 0.4054 -0.0551
v  -0.0780 0.4054 0.0000
v  -0.0551 0.4054 0.0551
v  0.0000 0.4054 0.0780
v  0.0551 0.4054 0.0551
v  0.0780 0.4054 -0.0000
v  0.0423 -0.1714 -0.0423
v  0.0598 -0.1714 -0.0000
v  -0.0000 -0.1714 -0.0598
v  -0.0423 -0.1714 -0.0423
v  -0.0598 -0.1714 -0.0000
v  -0.0423 -0.1714 0.0423
v  0.0000 -0.1714 0.0598
v  0.0423 -0.1714 0.0423
v  0.0423 0.3148 -0.0423
v  0.0598 0.3148 -0.0000
v  -0.0000 0.3148 -0.0598
v  -0.0423 0.3148 -0.0423
v  -0.0598 0.3148 0.0000
v  -0.0423 0.3148 0.0423
v  0.0000 0.3148 0.0598
v  0.0423 0.3148 0.0423
v  0.0551 0.3148 -0.0551
v  0.0780 0.3148 -0.0000
v  -0.0000 0.3148 -0.0780
v  -0.0551 0.3148 -0.0551
v  -0.0780 0.3148 0.0000
v  -0.0551 0.3148 0.0551
v  0.0000 0.3148 0.0780
v  0.0551 0.3148 0.0551
# 48 vertices

vn 1.0000 0.0000 0.0000
vn 0.7071 -0.0000 -0.7071
vn 1.0000 -0.0000 -0.0000
vn -0.0000 -0.0000 -1.0000
vn -0.7071 -0.0000 -0.7071
vn -1.0000 -0.0000 0.0000
vn -1.0000 0.0000 0.0000
vn -0.7071 0.0000 0.7071
vn -0.0000 0.0000 1.0000
vn 0.7071 0.0000 0.7071
vn 0.0000 -1.0000 -0.0000
vn 0.0000 1.0000 -0.0000
vn 0.7071 0.0000 -0.7071
vn 0.0000 0.0000 -1.0000
vn -0.0000 0.0000 -1.0000
vn -0.7071 0.0000 -0.7071
vn -0.7071 -0.0000 0.7071
vn -0.0000 -0.0000 1.0000
vn 0.7071 -0.0000 0.7071
vn 1.0000 0.0000 -0.0000
# 20 vertex normals

vt 0.0100 0.5750 0.0000
vt 0.0100 0.5119 0.0000
vt 0.2778 0.5119 0.0000
vt 0.2778 0.5750 0.0000
vt 0.3065 0.6381 0.0000
vt 0.3065 0.5750 0.0000
vt 0.5743 0.5750 0.0000
vt 0.5743 0.6381 0.0000
vt 0.3065 0.5119 0.0000
vt 0.5743 0.5119 0.0000
vt 0.0100 0.7929 0.0000
vt 0.0100 0.7298 0.0000
vt 0.2778 0.7298 0.0000
vt 0.2778 0.7929 0.0000
vt 0.0100 0.6667 0.0000
vt 0.2778 0.6667 0.0000
vt 0.0100 0.9477 0.0000
vt 0.0100 0.8846 0.0000
vt 0.2778 0.8846 0.0000
vt 0.2778 0.9477 0.0000
vt 0.0100 0.8215 0.0000
vt 0.2778 0.8215 0.0000
vt 0.0100 0.6381 0.0000
vt 0.2778 0.6381 0.0000
vt 0.8245 0.7828 0.0000
vt 0.8252 0.7145 0.0000
vt 0.8739 0.6667 0.0000
vt 0.9422 0.6674 0.0000
vt 0.9900 0.7162 0.0000
vt 0.9893 0.7844 0.0000
vt 0.9406 0.8322 0.0000
vt 0.8723 0.8316 0.0000
vt 0.3543 0.8316 0.0000
vt 0.3065 0.7828 0.0000
vt 0.3071 0.7145 0.0000
vt 0.3559 0.6667 0.0000
vt 0.4242 0.6674 0.0000
vt 0.4720 0.7162 0.0000
vt 0.4713 0.7844 0.0000
vt 0.4226 0.8322 0.0000
vt 0.7679 0.8322 0.0000
vt 0.6996 0.8316 0.0000
vt 0.7077 0.8125 0.0000
vt 0.7602 0.8130 0.0000
vt 0.6518 0.7828 0.0000
vt 0.6711 0.7751 0.0000
vt 0.6525 0.7145 0.0000
vt 0.6716 0.7227 0.0000
vt 0.7012 0.6667 0.0000
vt 0.7090 0.6860 0.0000
vt 0.7695 0.6674 0.0000
vt 0.7614 0.6865 0.0000
vt 0.8173 0.7162 0.0000
vt 0.7981 0.7239 0.0000
vt 0.8167 0.7844 0.0000
vt 0.7976 0.7763 0.0000
vt 0.0100 0.0584 0.0000
vt 0.0100 0.0100 0.0000
vt 0.5664 0.0100 0.0000
vt 0.5664 0.0584 0.0000
vt 0.0100 0.3578 0.0000
vt 0.0100 0.3094 0.0000
vt 0.5664 0.3094 0.0000
vt 0.5664 0.3578 0.0000
vt 0.0100 0.2610 0.0000
vt 0.5664 0.2610 0.0000
vt 0.0100 0.2323 0.0000
vt 0.0100 0.1839 0.0000
vt 0.5664 0.1839 0.0000
vt 0.5664 0.2323 0.0000
vt 0.0100 0.1355 0.0000
vt 0.5664 0.1355 0.0000
vt 0.0100 0.4833 0.0000
vt 0.0100 0.4349 0.0000
vt 0.5664 0.4349 0.0000
vt 0.5664 0.4833 0.0000
vt 0.0100 0.3864 0.0000
vt 0.5664 0.3864 0.0000
vt 0.0100 0.1068 0.0000
vt 0.5664 0.1068 0.0000
vt 0.5875 0.8130 0.0000
vt 0.6249 0.7763 0.0000
vt 0.6440 0.7844 0.0000
vt 0.5952 0.8322 0.0000
vt 0.6254 0.7239 0.0000
vt 0.6447 0.7162 0.0000
vt 0.5887 0.6865 0.0000
vt 0.5968 0.6674 0.0000
vt 0.5363 0.6860 0.0000
vt 0.5286 0.6667 0.0000
vt 0.4989 0.7227 0.0000
vt 0.4798 0.7145 0.0000
vt 0.4984 0.7751 0.0000
vt 0.4791 0.7828 0.0000
vt 0.5351 0.8125 0.0000
vt 0.5270 0.8316 0.0000
vt 0.6581 0.2391 0.0000
vt 0.5950 0.2391 0.0000
vt 0.5950 0.1355 0.0000
vt 0.6581 0.1355 0.0000
vt 0.7212 0.3646 0.0000
vt 0.6581 0.3646 0.0000
vt 0.6581 0.2610 0.0000
vt 0.7212 0.2610 0.0000
vt 0.5950 0.3646 0.0000
vt 0.5950 0.2610 0.0000
vt 0.7212 0.1136 0.0000
vt 0.6581 0.1136 0.0000
vt 0.6581 0.0100 0.0000
vt 0.7212 0.0100 0.0000
vt 0.5950 0.1136 0.0000
vt 0.5950 0.0100 0.0000
vt 0.7212 0.4901 0.0000
vt 0.6581 0.4901 0.0000
vt 0.6581 0.3864 0.0000
vt 0.7212 0.3864 0.0000
vt 0.5950 0.4901 0.0000
vt 0.5950 0.3864 0.0000
vt 0.7212 0.2391 0.0000
vt 0.7212 0.1355 0.0000
# 120 texture coords

g Flare
usemtl Material__47asdas
s 1
f 1/1/1 2/2/2 3/3/2 
f 3/3/2 4/4/3 1/1/1 
f 2/5/2 5/6/4 6/7/4 
f 6/7/4 3/8/2 2/5/2 
f 5/6/4 7/9/5 8/10/5 
f 8/10/5 6/7/4 5/6/4 
f 7/11/5 9/12/6 10/13/7 
f 10/13/7 8/14/5 7/11/5 
f 9/12/6 11/15/8 12/16/8 
f 12/16/8 10/13/7 9/12/6 
f 11/17/8 13/18/9 14/19/9 
f 14/19/9 12/20/8 11/17/8 
f 13/18/9 15/21/10 16/22/10 
f 16/22/10 14/19/9 13/18/9 
f 15/23/10 1/1/1 4/4/3 
f 4/4/3 16/24/10 15/23/10 
s 2
f 13/25/11 11/26/11 9/27/11 
f 9/27/11 7/28/11 5/29/11 
f 5/29/11 2/30/11 1/31/11 
f 9/27/11 5/29/11 1/31/11 
f 13/25/11 9/27/11 1/31/11 
f 15/32/11 13/25/11 1/31/11 
s 1
f 17/33/12 18/34/12 19/35/12 
f 19/35/12 20/36/12 21/37/12 
f 21/37/12 22/38/12 23/39/12 
f 19/35/12 21/37/12 23/39/12 
f 17/33/12 19/35/12 23/39/12 
f 24/40/12 17/33/12 23/39/12 
s 2
f 4/41/12 3/42/12 25/43/12 
f 25/43/12 26/44/12 4/41/12 
f 3/42/12 6/45/12 27/46/12 
f 27/46/12 25/43/12 3/42/12 
f 6/45/12 8/47/12 28/48/12 
f 28/48/12 27/46/12 6/45/12 
f 8/47/12 10/49/12 29/50/12 
f 29/50/12 28/48/12 8/47/12 
f 10/49/12 12/51/12 30/52/12 
f 30/52/12 29/50/12 10/49/12 
f 12/51/12 14/53/12 31/54/12 
f 31/54/12 30/52/12 12/51/12 
f 14/53/12 16/55/12 32/56/12 
f 32/56/12 31/54/12 14/53/12 
f 16/55/12 4/41/12 26/44/12 
f 26/44/12 32/56/12 16/55/12 
s 1
f 26/57/3 25/58/13 33/59/13 
f 33/59/13 34/60/1 26/57/3 
f 25/61/13 27/62/14 35/63/15 
f 35/63/15 33/64/13 25/61/13 
f 27/62/14 28/65/16 36/66/16 
f 36/66/16 35/63/15 27/62/14 
f 28/67/16 29/68/7 37/69/6 
f 37/69/6 36/70/16 28/67/16 
f 29/68/7 30/71/17 38/72/17 
f 38/72/17 37/69/6 29/68/7 
f 30/73/17 31/74/18 39/75/18 
f 39/75/18 38/76/17 30/73/17 
f 31/74/18 32/77/19 40/78/19 
f 40/78/19 39/75/18 31/74/18 
f 32/79/19 26/57/3 34/60/1 
f 34/60/1 40/80/19 32/79/19 
s 2
f 34/81/11 33/82/11 41/83/11 
f 41/83/11 42/84/11 34/81/11 
f 33/82/11 35/85/11 43/86/11 
f 43/86/11 41/83/11 33/82/11 
f 35/85/11 36/87/11 44/88/11 
f 44/88/11 43/86/11 35/85/11 
f 36/87/11 37/89/11 45/90/11 
f 45/90/11 44/88/11 36/87/11 
f 37/89/11 38/91/11 46/92/11 
f 46/92/11 45/90/11 37/89/11 
f 38/91/11 39/93/11 47/94/11 
f 47/94/11 46/92/11 38/91/11 
f 39/93/11 40/95/11 48/96/11 
f 48/96/11 47/94/11 39/93/11 
f 40/95/11 34/81/11 42/84/11 
f 42/84/11 48/96/11 40/95/11 
s 4
f 42/97/20 41/98/13 17/99/13 
f 17/99/13 24/100/3 42/97/20 
f 41/101/13 43/102/15 18/103/15 
f 18/103/15 17/104/13 41/101/13 
f 43/102/15 44/105/16 19/106/16 
f 19/106/16 18/103/15 43/102/15 
f 44/107/16 45/108/6 20/109/7 
f 20/109/7 19/110/16 44/107/16 
f 45/108/6 46/111/17 21/112/17 
f 21/112/17 20/109/7 45/108/6 
f 46/113/17 47/114/18 22/115/18 
f 22/115/18 21/116/17 46/113/17 
f 47/114/18 48/117/19 23/118/19 
f 23/118/19 22/115/18 47/114/18 
f 48/119/19 42/97/20 24/100/3 
f 24/100/3 23/120/19 48/119/19 
# 92 faces

