# 3ds Max Wavefront OBJ Exporter v0.97b - (c)2007 guruware
# File Created: 09.12.2015 22:31:33

mtllib platform_1.mtl

#
# object platform_1
#

v  2.5000 0.0071 2.5000
v  2.5000 0.5000 2.5000
v  1.8186 0.5000 2.5000
v  1.8186 0.0071 2.5000
v  2.5000 0.0071 -2.5000
v  2.5000 0.5000 -2.5000
v  -2.5000 0.0071 -2.5000
v  -2.5000 0.5000 -2.5000
v  1.8186 0.3624 -1.6576
v  -1.8181 0.3624 -1.6576
v  -1.8181 0.3624 -1.5001
v  1.8186 0.3624 -1.5074
v  -1.6907 0.3686 2.3893
v  -1.6907 0.3686 1.6281
v  -1.8181 0.3686 1.6281
v  -1.8181 0.3686 2.3893
v  1.8186 0.5000 -1.2247
v  1.8186 0.5000 -0.8586
v  1.8186 0.5000 1.2578
v  1.8186 0.5000 -1.5074
v  1.8186 0.5000 -1.6576
v  1.8186 0.5000 1.6281
v  -1.8181 0.5000 -1.6576
v  -2.5000 0.5000 2.5000
v  -1.8181 0.5000 1.6281
v  -1.8181 0.5000 1.2578
v  -1.8181 0.5000 -0.8586
v  -1.8181 0.5000 -1.2247
v  -1.8181 0.5000 -1.5001
v  1.7081 0.3686 -0.8586
v  1.8186 0.3686 -0.8586
v  1.8186 0.3686 -1.2247
v  1.3661 0.3686 -0.8586
v  1.2392 0.3686 -0.8586
v  -1.2361 0.3686 -0.8586
v  -1.3630 0.3686 -0.8586
v  -1.6907 0.3686 -0.8586
v  -1.8181 0.3686 -0.8586
v  -1.8181 0.3686 -1.2247
v  1.7081 0.3686 1.6281
v  1.8186 0.3686 1.6281
v  1.8186 0.3686 1.2578
v  1.7081 0.3686 1.2578
v  1.3661 0.3686 1.2578
v  1.2392 0.3686 1.2578
v  -1.2361 0.3686 1.2578
v  -1.3630 0.3686 1.2578
v  -1.6907 0.3686 1.2578
v  -1.8181 0.3686 1.2578
v  -1.6907 0.5000 -0.8586
v  -1.6907 0.5000 1.2578
v  -1.3630 0.5000 1.2578
v  -1.3630 0.5000 -0.8586
v  -1.2361 0.5000 -0.8586
v  -1.2361 0.5000 1.2578
v  1.2392 0.5000 1.2578
v  1.2392 0.5000 -0.8586
v  1.7081 0.5000 1.2578
v  1.7081 0.5000 -0.8586
v  1.3661 0.5000 -0.8586
v  1.3661 0.5000 1.2578
v  -1.8181 0.5000 2.5000
v  1.7081 0.3686 2.3893
v  1.8186 0.3686 2.3893
v  -1.6907 0.5000 1.6281
v  -1.6907 0.5000 2.5000
v  1.7081 0.5000 2.5000
v  1.7081 0.5000 1.6281
v  -1.6907 0.0071 2.5000
v  1.7081 0.0071 2.5000
v  1.7081 0.1385 2.3893
v  -2.5000 0.0071 2.5000
v  1.8186 0.1447 -1.6576
v  1.8186 0.1447 -1.5074
v  -1.8181 0.1447 -1.5001
v  -1.8181 0.1447 -1.6576
v  -1.6907 0.1385 2.3893
v  -1.8181 0.1385 2.3893
v  -1.8181 0.1385 1.6281
v  -1.6907 0.1385 1.6281
v  1.8186 0.0071 1.6281
v  1.8186 0.0071 1.2578
v  1.8186 0.0071 -0.8586
v  1.8186 0.0071 -1.2247
v  1.8186 0.0071 -1.5074
v  1.8186 0.0071 -1.6576
v  -1.8181 0.0071 -1.6576
v  -1.8181 0.0071 -1.5001
v  -1.8181 0.0071 -1.2247
v  -1.8181 0.0071 -0.8586
v  -1.8181 0.0071 1.2578
v  -1.8181 0.0071 1.6281
v  1.8186 0.1385 -1.2247
v  1.8186 0.1385 -0.8586
v  1.7081 0.1385 -0.8586
v  1.3661 0.1385 -0.8586
v  1.2392 0.1385 -0.8586
v  -1.2361 0.1385 -0.8586
v  -1.3630 0.1385 -0.8586
v  -1.6907 0.1385 -0.8586
v  -1.8181 0.1385 -0.8586
v  -1.8181 0.1385 -1.2247
v  1.8186 0.1385 1.2578
v  1.8186 0.1385 1.6281
v  1.7081 0.1385 1.6281
v  1.7081 0.1385 1.2578
v  1.3661 0.1385 1.2578
v  1.2392 0.1385 1.2578
v  -1.2361 0.1385 1.2578
v  -1.3630 0.1385 1.2578
v  -1.6907 0.1385 1.2578
v  -1.8181 0.1385 1.2578
v  -1.6907 0.0071 -0.8586
v  -1.3630 0.0071 -0.8586
v  -1.3630 0.0071 1.2578
v  -1.6907 0.0071 1.2578
v  -1.2361 0.0071 -0.8586
v  1.2392 0.0071 -0.8586
v  1.2392 0.0071 1.2578
v  -1.2361 0.0071 1.2578
v  1.7081 0.0071 1.2578
v  1.3661 0.0071 1.2578
v  1.3661 0.0071 -0.8586
v  1.7081 0.0071 -0.8586
v  -1.8181 0.0071 2.5000
v  1.8186 0.1385 2.3893
v  -1.6907 0.0071 1.6281
v  1.7081 0.0071 1.6281
# 128 vertices

vn 0.0000 0.0000 1.0000
vn 1.0000 0.0000 -0.0000
vn 0.0000 0.0000 -1.0000
vn 0.0000 1.0000 -0.0000
vn 0.0000 0.0000 -0.0000
vn -0.0020 0.0000 -1.0000
vn -1.0000 0.0000 -0.0000
vn -0.0000 0.0000 1.0000
vn 0.0000 -1.0000 -0.0000
vn -0.0000 -1.0000 -0.0000
vn -0.0000 -1.0000 0.0000
vn 0.0000 -1.0000 0.0000
# 12 vertex normals

vt 0.5415 0.1348 0.0000
vt 0.5793 0.1348 0.0000
vt 0.5793 0.1869 0.0000
vt 0.5415 0.1869 0.0000
vt 0.7840 0.7434 0.0000
vt 0.4012 0.7434 0.0000
vt 0.4012 0.7056 0.0000
vt 0.7840 0.7056 0.0000
vt 0.7840 0.8063 0.0000
vt 0.4012 0.8063 0.0000
vt 0.4012 0.7685 0.0000
vt 0.7840 0.7685 0.0000
vt 0.4012 0.8943 0.0000
vt 0.6797 0.8943 0.0000
vt 0.6797 0.9064 0.0000
vt 0.4012 0.9058 0.0000
vt 0.6699 0.5886 0.0000
vt 0.6699 0.5303 0.0000
vt 0.6797 0.5303 0.0000
vt 0.6797 0.5886 0.0000
vt 0.3407 0.6864 0.0000
vt 0.3407 0.6584 0.0000
vt 0.3407 0.4963 0.0000
vt 0.3407 0.7080 0.0000
vt 0.3407 0.7195 0.0000
vt 0.3928 0.7840 0.0000
vt 0.3928 0.4012 0.0000
vt 0.3407 0.4680 0.0000
vt 0.0100 0.7840 0.0000
vt 0.0622 0.7195 0.0000
vt 0.0100 0.4012 0.0000
vt 0.0622 0.4680 0.0000
vt 0.0622 0.4963 0.0000
vt 0.0622 0.6584 0.0000
vt 0.0622 0.6864 0.0000
vt 0.0622 0.7075 0.0000
vt 0.4097 0.3399 0.0000
vt 0.4012 0.3399 0.0000
vt 0.4012 0.3119 0.0000
vt 0.4359 0.3399 0.0000
vt 0.4456 0.3399 0.0000
vt 0.6351 0.3399 0.0000
vt 0.6448 0.3399 0.0000
vt 0.6699 0.3399 0.0000
vt 0.6797 0.3399 0.0000
vt 0.6797 0.3119 0.0000
vt 0.4097 0.5303 0.0000
vt 0.4012 0.5303 0.0000
vt 0.4012 0.5019 0.0000
vt 0.4097 0.5019 0.0000
vt 0.4359 0.5019 0.0000
vt 0.4456 0.5019 0.0000
vt 0.6351 0.5019 0.0000
vt 0.6448 0.5019 0.0000
vt 0.6699 0.5019 0.0000
vt 0.6797 0.5019 0.0000
vt 0.0726 0.4012 0.0000
vt 0.2346 0.4012 0.0000
vt 0.2346 0.4263 0.0000
vt 0.0726 0.4263 0.0000
vt 0.8943 0.0100 0.0000
vt 0.8943 0.1720 0.0000
vt 0.7048 0.1720 0.0000
vt 0.7048 0.0100 0.0000
vt 0.4975 0.5624 0.0000
vt 0.6596 0.5624 0.0000
vt 0.6596 0.5886 0.0000
vt 0.4975 0.5886 0.0000
vt 0.0622 0.4012 0.0000
vt 0.4097 0.5886 0.0000
vt 0.4012 0.5886 0.0000
vt 0.6615 0.6137 0.0000
vt 0.6615 0.6805 0.0000
vt 0.4012 0.6805 0.0000
vt 0.4012 0.6137 0.0000
vt 0.3407 0.4012 0.0000
vt 0.7048 0.4038 0.0000
vt 0.9651 0.4038 0.0000
vt 0.9651 0.4415 0.0000
vt 0.7048 0.4415 0.0000
vt 0.7048 0.8943 0.0000
vt 0.9833 0.8943 0.0000
vt 0.9833 0.9048 0.0000
vt 0.7048 0.9048 0.0000
vt 0.4707 0.5765 0.0000
vt 0.4707 0.5886 0.0000
vt 0.4602 0.5886 0.0000
vt 0.4602 0.5765 0.0000
vt 0.7048 0.4667 0.0000
vt 0.9833 0.4667 0.0000
vt 0.9833 0.4772 0.0000
vt 0.7048 0.4772 0.0000
vt 0.4502 0.5435 0.0000
vt 0.4617 0.5435 0.0000
vt 0.4617 0.5540 0.0000
vt 0.4502 0.5540 0.0000
vt 0.7534 0.6137 0.0000
vt 0.7817 0.6137 0.0000
vt 0.7817 0.6238 0.0000
vt 0.7534 0.6238 0.0000
vt 0.9438 0.6137 0.0000
vt 0.9438 0.6238 0.0000
vt 0.9718 0.6137 0.0000
vt 0.9718 0.6238 0.0000
vt 0.4012 0.9672 0.0000
vt 0.6797 0.9672 0.0000
vt 0.6797 0.9773 0.0000
vt 0.4012 0.9773 0.0000
vt 0.7048 0.1972 0.0000
vt 0.7328 0.1972 0.0000
vt 0.7328 0.2073 0.0000
vt 0.7048 0.2073 0.0000
vt 0.8949 0.1972 0.0000
vt 0.8949 0.2073 0.0000
vt 0.9232 0.1972 0.0000
vt 0.9232 0.2073 0.0000
vt 0.9900 0.1972 0.0000
vt 0.9815 0.2073 0.0000
vt 0.5154 0.3598 0.0000
vt 0.5821 0.3598 0.0000
vt 0.5821 0.3699 0.0000
vt 0.5239 0.3699 0.0000
vt 0.2956 0.3798 0.0000
vt 0.2956 0.1195 0.0000
vt 0.3056 0.1195 0.0000
vt 0.3056 0.3798 0.0000
vt 0.5821 0.4249 0.0000
vt 0.5821 0.4916 0.0000
vt 0.5721 0.4832 0.0000
vt 0.5721 0.4249 0.0000
vt 0.5444 0.4916 0.0000
vt 0.5545 0.4832 0.0000
vt 0.6866 0.6137 0.0000
vt 0.6951 0.6238 0.0000
vt 0.6067 0.4666 0.0000
vt 0.6067 0.4916 0.0000
vt 0.5967 0.4916 0.0000
vt 0.5967 0.4666 0.0000
vt 0.1564 0.2816 0.0000
vt 0.1564 0.1195 0.0000
vt 0.1665 0.1195 0.0000
vt 0.1665 0.2816 0.0000
vt 0.5570 0.4064 0.0000
vt 0.5821 0.4064 0.0000
vt 0.5821 0.4165 0.0000
vt 0.5570 0.4165 0.0000
vt 0.3140 0.2816 0.0000
vt 0.3140 0.1195 0.0000
vt 0.3241 0.1195 0.0000
vt 0.3241 0.2816 0.0000
vt 0.2621 0.4448 0.0000
vt 0.0726 0.4448 0.0000
vt 0.0726 0.4347 0.0000
vt 0.2621 0.4347 0.0000
vt 0.2816 0.3610 0.0000
vt 0.1195 0.3610 0.0000
vt 0.1195 0.3509 0.0000
vt 0.2816 0.3509 0.0000
vt 0.4701 0.0140 0.0000
vt 0.6596 0.0140 0.0000
vt 0.6596 0.0241 0.0000
vt 0.4701 0.0241 0.0000
vt 0.0910 0.2816 0.0000
vt 0.0910 0.1195 0.0000
vt 0.1011 0.1195 0.0000
vt 0.1011 0.2816 0.0000
vt 0.6252 0.4309 0.0000
vt 0.6252 0.4571 0.0000
vt 0.6151 0.4571 0.0000
vt 0.6151 0.4309 0.0000
vt 0.1749 0.2816 0.0000
vt 0.1749 0.1195 0.0000
vt 0.1849 0.1195 0.0000
vt 0.1849 0.2816 0.0000
vt 0.4875 0.4654 0.0000
vt 0.4875 0.4916 0.0000
vt 0.4774 0.4916 0.0000
vt 0.4774 0.4654 0.0000
vt 0.2816 0.3425 0.0000
vt 0.1195 0.3425 0.0000
vt 0.1195 0.3325 0.0000
vt 0.2816 0.3325 0.0000
vt 0.4012 0.8692 0.0000
vt 0.4012 0.8314 0.0000
vt 0.7840 0.8314 0.0000
vt 0.7840 0.8692 0.0000
vt 0.7048 0.2721 0.0000
vt 0.7048 0.2606 0.0000
vt 0.9833 0.2601 0.0000
vt 0.9833 0.2721 0.0000
vt 0.6699 0.0100 0.0000
vt 0.6797 0.0100 0.0000
vt 0.6797 0.0683 0.0000
vt 0.6699 0.0683 0.0000
vt 0.3928 0.3928 0.0000
vt 0.3407 0.3261 0.0000
vt 0.3407 0.2977 0.0000
vt 0.3407 0.1357 0.0000
vt 0.3407 0.1076 0.0000
vt 0.3407 0.0860 0.0000
vt 0.3407 0.0745 0.0000
vt 0.3928 0.0100 0.0000
vt 0.0622 0.0745 0.0000
vt 0.0100 0.0100 0.0000
vt 0.0622 0.0866 0.0000
vt 0.0622 0.1076 0.0000
vt 0.0622 0.1357 0.0000
vt 0.0622 0.2977 0.0000
vt 0.0622 0.3261 0.0000
vt 0.0100 0.3928 0.0000
vt 0.4012 0.2867 0.0000
vt 0.4012 0.2587 0.0000
vt 0.4097 0.2587 0.0000
vt 0.4359 0.2587 0.0000
vt 0.4456 0.2587 0.0000
vt 0.6351 0.2587 0.0000
vt 0.6448 0.2587 0.0000
vt 0.6699 0.2587 0.0000
vt 0.6797 0.2587 0.0000
vt 0.6797 0.2867 0.0000
vt 0.4012 0.0966 0.0000
vt 0.4012 0.0683 0.0000
vt 0.4097 0.0683 0.0000
vt 0.4097 0.0966 0.0000
vt 0.4359 0.0966 0.0000
vt 0.4456 0.0966 0.0000
vt 0.6351 0.0966 0.0000
vt 0.6448 0.0966 0.0000
vt 0.6699 0.0966 0.0000
vt 0.6797 0.0966 0.0000
vt 0.4631 0.2496 0.0000
vt 0.4631 0.2246 0.0000
vt 0.6252 0.2246 0.0000
vt 0.6252 0.2496 0.0000
vt 0.1995 0.9545 0.0000
vt 0.0100 0.9545 0.0000
vt 0.0100 0.7924 0.0000
vt 0.1995 0.7924 0.0000
vt 0.6596 0.0324 0.0000
vt 0.6596 0.0586 0.0000
vt 0.4975 0.0586 0.0000
vt 0.4975 0.0324 0.0000
vt 0.0622 0.3928 0.0000
vt 0.4097 0.0100 0.0000
vt 0.4012 0.0100 0.0000
vt 0.9651 0.3786 0.0000
vt 0.7048 0.3786 0.0000
vt 0.7048 0.3119 0.0000
vt 0.9651 0.3119 0.0000
vt 0.3407 0.3928 0.0000
vt 0.4983 0.4394 0.0000
vt 0.5360 0.4394 0.0000
vt 0.5360 0.4916 0.0000
vt 0.4983 0.4916 0.0000
vt 0.6075 0.4127 0.0000
vt 0.6252 0.4127 0.0000
vt 0.6252 0.4225 0.0000
vt 0.6075 0.4225 0.0000
vt 0.4875 0.4140 0.0000
vt 0.4875 0.4225 0.0000
vt 0.4699 0.4225 0.0000
vt 0.4699 0.4140 0.0000
vt 0.7048 0.5129 0.0000
vt 0.7048 0.5024 0.0000
vt 0.9833 0.5024 0.0000
vt 0.9833 0.5129 0.0000
vt 0.5255 0.4190 0.0000
vt 0.5360 0.4190 0.0000
vt 0.5360 0.4310 0.0000
vt 0.5255 0.4310 0.0000
vt 0.4012 0.9421 0.0000
vt 0.4012 0.9315 0.0000
vt 0.6797 0.9315 0.0000
vt 0.6797 0.9421 0.0000
vt 0.5962 0.4456 0.0000
vt 0.6067 0.4456 0.0000
vt 0.6067 0.4571 0.0000
vt 0.5962 0.4571 0.0000
vt 0.7534 0.6515 0.0000
vt 0.7534 0.6414 0.0000
vt 0.7817 0.6414 0.0000
vt 0.7817 0.6515 0.0000
vt 0.9438 0.6414 0.0000
vt 0.9438 0.6515 0.0000
vt 0.9718 0.6414 0.0000
vt 0.9718 0.6515 0.0000
vt 0.7048 0.9416 0.0000
vt 0.7048 0.9315 0.0000
vt 0.9833 0.9315 0.0000
vt 0.9833 0.9416 0.0000
vt 0.7048 0.2349 0.0000
vt 0.7048 0.2249 0.0000
vt 0.7328 0.2249 0.0000
vt 0.7328 0.2349 0.0000
vt 0.8949 0.2249 0.0000
vt 0.8949 0.2349 0.0000
vt 0.9232 0.2249 0.0000
vt 0.9232 0.2349 0.0000
vt 0.9815 0.2249 0.0000
vt 0.9900 0.2349 0.0000
vt 0.5239 0.3875 0.0000
vt 0.5154 0.3976 0.0000
vt 0.5821 0.3875 0.0000
vt 0.5821 0.3976 0.0000
vt 0.0827 0.3798 0.0000
vt 0.0726 0.3798 0.0000
vt 0.0726 0.1195 0.0000
vt 0.0827 0.1195 0.0000
vt 0.5444 0.4249 0.0000
vt 0.5545 0.4249 0.0000
vt 0.6951 0.6414 0.0000
vt 0.6866 0.6515 0.0000
vt 0.4791 0.5635 0.0000
vt 0.4892 0.5635 0.0000
vt 0.4892 0.5886 0.0000
vt 0.4791 0.5886 0.0000
vt 0.2346 0.4716 0.0000
vt 0.2346 0.4816 0.0000
vt 0.0726 0.4816 0.0000
vt 0.0726 0.4716 0.0000
vt 0.4590 0.4666 0.0000
vt 0.4690 0.4666 0.0000
vt 0.4690 0.4916 0.0000
vt 0.4590 0.4916 0.0000
vt 0.2816 0.3140 0.0000
vt 0.2816 0.3241 0.0000
vt 0.1195 0.3241 0.0000
vt 0.1195 0.3140 0.0000
vt 0.4701 0.5540 0.0000
vt 0.4701 0.5439 0.0000
vt 0.6596 0.5439 0.0000
vt 0.6596 0.5540 0.0000
vt 0.1296 0.2816 0.0000
vt 0.1195 0.2816 0.0000
vt 0.1195 0.1195 0.0000
vt 0.1296 0.1195 0.0000
vt 0.2621 0.4531 0.0000
vt 0.2621 0.4632 0.0000
vt 0.0726 0.4632 0.0000
vt 0.0726 0.4531 0.0000
vt 0.2816 0.2956 0.0000
vt 0.2816 0.3056 0.0000
vt 0.1195 0.3056 0.0000
vt 0.1195 0.2956 0.0000
vt 0.6151 0.4654 0.0000
vt 0.6252 0.4654 0.0000
vt 0.6252 0.4916 0.0000
vt 0.6151 0.4916 0.0000
vt 0.1480 0.2816 0.0000
vt 0.1380 0.2816 0.0000
vt 0.1380 0.1195 0.0000
vt 0.1480 0.1195 0.0000
vt 0.4774 0.4309 0.0000
vt 0.4875 0.4309 0.0000
vt 0.4875 0.4571 0.0000
vt 0.4774 0.4571 0.0000
vt 0.4631 0.2162 0.0000
vt 0.4631 0.2061 0.0000
vt 0.6252 0.2061 0.0000
vt 0.6252 0.2162 0.0000
# 360 texture coords

g platform_1
usemtl Material__104
s 8
f 1/1/1 2/2/1 3/3/1 
f 3/3/1 4/4/1 1/1/1 
s 16
f 1/5/2 5/6/2 6/7/2 
f 6/7/2 2/8/2 1/5/2 
s 32
f 5/9/3 7/10/3 8/11/3 
f 8/11/3 6/12/3 5/9/3 
s off
f 9/13/4 10/14/4 11/15/4 
f 11/15/4 12/16/4 9/13/4 
f 13/17/4 14/18/4 15/19/4 
f 15/19/4 16/20/4 13/17/4 
f 17/21/5 18/22/5 19/23/5 
f 20/24/5 17/21/5 19/23/5 
f 21/25/5 20/24/5 19/23/5 
f 6/26/4 21/25/4 19/23/4 
f 2/27/4 6/26/4 19/23/4 
f 2/27/4 19/23/4 22/28/4 
f 6/26/4 8/29/4 23/30/4 
f 23/30/4 21/25/4 6/26/4 
f 8/29/4 24/31/4 25/32/4 
f 8/29/4 25/32/4 26/33/4 
f 8/29/4 26/33/4 27/34/4 
f 8/29/4 27/34/4 28/35/4 
f 8/29/4 28/35/4 29/36/4 
f 8/29/4 29/36/4 23/30/4 
f 28/35/4 17/21/4 20/24/4 
f 20/24/4 29/36/4 28/35/4 
f 30/37/4 31/38/4 32/39/4 
f 33/40/4 30/37/4 32/39/4 
f 34/41/4 33/40/4 32/39/4 
f 35/42/4 34/41/4 32/39/4 
f 36/43/4 35/42/4 32/39/4 
f 37/44/4 36/43/4 32/39/4 
f 38/45/4 37/44/4 32/39/4 
f 39/46/4 38/45/4 32/39/4 
f 40/47/4 41/48/4 42/49/4 
f 14/18/4 40/47/4 42/49/4 
f 15/19/4 14/18/4 42/49/4 
f 15/19/4 42/49/4 43/50/4 
f 15/19/4 43/50/4 44/51/4 
f 15/19/4 44/51/4 45/52/4 
f 15/19/4 45/52/4 46/53/4 
f 15/19/4 46/53/4 47/54/4 
f 15/19/4 47/54/4 48/55/4 
f 49/56/4 15/19/4 48/55/4 
f 38/45/4 49/56/4 48/55/4 
f 48/55/4 37/44/4 38/45/4 
f 46/53/4 35/42/4 36/43/4 
f 36/43/4 47/54/4 46/53/4 
f 50/57/4 51/58/4 52/59/4 
f 52/59/4 53/60/4 50/57/4 
f 44/51/4 33/40/4 34/41/4 
f 34/41/4 45/52/4 44/51/4 
f 54/61/4 55/62/4 56/63/4 
f 56/63/4 57/64/4 54/61/4 
f 58/65/4 59/66/4 60/67/4 
f 60/67/4 61/68/4 58/65/4 
f 42/49/4 31/38/4 30/37/4 
f 30/37/4 43/50/4 42/49/4 
f 25/32/4 24/31/4 62/69/4 
f 63/70/4 64/71/4 41/48/4 
f 41/48/4 40/47/4 63/70/4 
f 65/72/4 66/73/4 67/74/4 
f 67/74/4 68/75/4 65/72/4 
f 3/76/4 2/27/4 22/28/4 
s 8
f 67/77/1 66/78/1 69/79/1 
f 69/79/1 70/80/1 67/77/1 
s off
f 21/81/1 23/82/1 10/83/1 
f 10/83/1 9/84/1 21/81/1 
f 23/85/2 29/86/2 11/87/2 
f 11/87/2 10/88/2 23/85/2 
f 29/89/6 20/90/6 12/91/6 
f 12/91/6 11/92/6 29/89/6 
f 20/93/7 21/94/7 9/95/7 
f 9/95/7 12/96/7 20/93/7 
f 22/97/7 19/98/7 42/99/7 
f 42/99/7 41/100/7 22/97/7 
f 19/98/7 18/101/7 31/102/7 
f 31/102/7 42/99/7 19/98/7 
f 18/101/7 17/103/7 32/104/7 
f 32/104/7 31/102/7 18/101/7 
f 17/105/8 28/106/8 39/107/8 
f 39/107/8 32/108/8 17/105/8 
f 28/109/2 27/110/2 38/111/2 
f 38/111/2 39/112/2 28/109/2 
f 27/110/2 26/113/2 49/114/2 
f 49/114/2 38/111/2 27/110/2 
f 26/113/2 25/115/2 15/116/2 
f 15/116/2 49/114/2 26/113/2 
f 25/115/2 62/117/2 16/118/2 
f 16/118/2 15/116/2 25/115/2 
f 66/119/7 65/120/7 14/121/7 
f 14/121/7 13/122/7 66/119/7 
f 65/123/3 68/124/3 40/125/3 
f 40/125/3 14/126/3 65/123/3 
f 68/127/2 67/128/2 63/129/2 
f 63/129/2 40/130/2 68/127/2 
f 67/128/2 70/131/2 71/132/2 
f 71/132/2 63/129/2 67/128/2 
f 3/133/7 22/97/7 41/100/7 
f 41/100/7 64/134/7 3/133/7 
f 50/135/3 53/136/3 36/137/3 
f 36/137/3 37/138/3 50/135/3 
f 53/139/2 52/140/2 47/141/2 
f 47/141/2 36/142/2 53/139/2 
f 52/143/1 51/144/1 48/145/1 
f 48/145/1 47/146/1 52/143/1 
f 51/147/7 50/148/7 37/149/7 
f 37/149/7 48/150/7 51/147/7 
f 54/151/3 57/152/3 34/153/3 
f 34/153/3 35/154/3 54/151/3 
f 57/155/2 56/156/2 45/157/2 
f 45/157/2 34/158/2 57/155/2 
f 56/159/1 55/160/1 46/161/1 
f 46/161/1 45/162/1 56/159/1 
f 55/163/7 54/164/7 35/165/7 
f 35/165/7 46/166/7 55/163/7 
f 60/167/3 59/168/3 30/169/3 
f 30/169/3 33/170/3 60/167/3 
f 59/171/2 58/172/2 43/173/2 
f 43/173/2 30/174/2 59/171/2 
f 58/175/1 61/176/1 44/177/1 
f 44/177/1 43/178/1 58/175/1 
f 61/179/7 60/180/7 33/181/7 
f 33/181/7 44/182/7 61/179/7 
s 64
f 72/183/7 24/184/7 8/185/7 
f 8/185/7 7/186/7 72/183/7 
s off
f 73/187/9 74/188/9 75/189/9 
f 75/189/9 76/190/9 73/187/9 
f 77/191/9 78/192/9 79/193/9 
f 79/193/9 80/194/9 77/191/9 
f 1/195/9 81/196/9 82/197/9 
f 82/197/2 83/198/2 84/199/2 
f 82/197/2 84/199/2 85/200/2 
f 82/197/5 85/200/5 86/201/5 
f 82/197/10 86/201/10 5/202/10 
f 1/195/11 82/197/11 5/202/11 
f 5/202/12 86/201/12 87/203/12 
f 87/203/12 7/204/12 5/202/12 
f 7/204/9 87/203/9 88/205/9 
f 7/204/9 88/205/9 89/206/9 
f 7/204/9 89/206/9 90/207/9 
f 7/204/11 90/207/11 91/208/11 
f 7/204/9 91/208/9 92/209/9 
f 7/204/11 92/209/11 72/210/11 
f 89/206/10 88/205/10 85/200/10 
f 85/200/9 84/199/9 89/206/9 
f 93/211/12 94/212/12 95/213/12 
f 93/211/12 95/213/12 96/214/12 
f 93/211/12 96/214/12 97/215/12 
f 93/211/12 97/215/12 98/216/12 
f 93/211/12 98/216/12 99/217/12 
f 93/211/12 99/217/12 100/218/12 
f 93/211/12 100/218/12 101/219/12 
f 102/220/11 93/211/11 101/219/11 
f 103/221/9 104/222/9 105/223/9 
f 103/221/9 105/223/9 80/194/9 
f 103/221/9 80/194/9 79/193/9 
f 106/224/9 103/221/9 79/193/9 
f 107/225/9 106/224/9 79/193/9 
f 108/226/9 107/225/9 79/193/9 
f 109/227/9 108/226/9 79/193/9 
f 110/228/9 109/227/9 79/193/9 
f 111/229/9 110/228/9 79/193/9 
f 112/230/9 111/229/9 79/193/9 
f 101/219/9 100/218/9 111/229/9 
f 111/229/9 112/230/9 101/219/9 
f 109/227/9 110/228/9 99/217/9 
f 99/217/9 98/216/9 109/227/9 
f 113/231/12 114/232/12 115/233/12 
f 115/233/12 116/234/12 113/231/12 
f 107/225/9 108/226/9 97/215/9 
f 97/215/9 96/214/9 107/225/9 
f 117/235/12 118/236/12 119/237/12 
f 119/237/12 120/238/12 117/235/12 
f 121/239/12 122/240/12 123/241/12 
f 123/241/12 124/242/12 121/239/12 
f 103/221/9 106/224/9 95/213/9 
f 95/213/9 94/212/9 103/221/9 
f 92/209/12 125/243/12 72/210/12 
f 71/244/9 105/223/9 104/222/9 
f 104/222/9 126/245/9 71/244/9 
f 127/246/12 128/247/12 70/248/12 
f 70/248/12 69/249/12 127/246/12 
f 4/250/12 81/196/12 1/195/12 
s 8
f 125/251/1 62/252/1 24/253/1 
f 24/253/1 72/254/1 125/251/1 
f 77/255/1 13/256/1 16/257/1 
f 16/257/1 78/258/1 77/255/1 
f 64/259/1 63/260/1 71/261/1 
f 71/261/1 126/262/1 64/259/1 
s off
f 86/263/1 73/264/1 76/265/1 
f 76/265/1 87/266/1 86/263/1 
f 87/267/2 76/268/2 75/269/2 
f 75/269/2 88/270/2 87/267/2 
f 88/271/6 75/272/6 74/273/6 
f 74/273/6 85/274/6 88/271/6 
f 85/275/7 74/276/7 73/277/7 
f 73/277/7 86/278/7 85/275/7 
f 81/279/7 104/280/7 103/281/7 
f 103/281/7 82/282/7 81/279/7 
f 82/282/7 103/281/7 94/283/7 
f 94/283/7 83/284/7 82/282/7 
f 83/284/7 94/283/7 93/285/7 
f 93/285/7 84/286/7 83/284/7 
f 84/287/8 93/288/8 102/289/8 
f 102/289/8 89/290/8 84/287/8 
f 89/291/2 102/292/2 101/293/2 
f 101/293/2 90/294/2 89/291/2 
f 90/294/2 101/293/2 112/295/2 
f 112/295/2 91/296/2 90/294/2 
f 91/296/2 112/295/2 79/297/2 
f 79/297/2 92/298/2 91/296/2 
f 92/298/2 79/297/2 78/299/2 
f 78/299/2 125/300/2 92/298/2 
f 125/300/2 78/299/2 16/118/2 
f 16/118/2 62/117/2 125/300/2 
f 13/122/7 77/301/7 69/302/7 
f 69/302/7 66/119/7 13/122/7 
f 69/302/7 77/301/7 80/303/7 
f 80/303/7 127/304/7 69/302/7 
f 127/305/3 80/306/3 105/307/3 
f 105/307/3 128/308/3 127/305/3 
f 128/309/2 105/310/2 71/132/2 
f 71/132/2 70/131/2 128/309/2 
f 3/133/7 64/134/7 126/311/7 
f 126/311/7 4/312/7 3/133/7 
f 4/312/7 126/311/7 104/280/7 
f 104/280/7 81/279/7 4/312/7 
f 113/313/3 100/314/3 99/315/3 
f 99/315/3 114/316/3 113/313/3 
f 114/317/2 99/318/2 110/319/2 
f 110/319/2 115/320/2 114/317/2 
f 115/321/1 110/322/1 111/323/1 
f 111/323/1 116/324/1 115/321/1 
f 116/325/7 111/326/7 100/327/7 
f 100/327/7 113/328/7 116/325/7 
f 117/329/3 98/330/3 97/331/3 
f 97/331/3 118/332/3 117/329/3 
f 118/333/2 97/334/2 108/335/2 
f 108/335/2 119/336/2 118/333/2 
f 119/337/1 108/338/1 109/339/1 
f 109/339/1 120/340/1 119/337/1 
f 120/341/7 109/342/7 98/343/7 
f 98/343/7 117/344/7 120/341/7 
f 123/345/3 96/346/3 95/347/3 
f 95/347/3 124/348/3 123/345/3 
f 124/349/2 95/350/2 106/351/2 
f 106/351/2 121/352/2 124/349/2 
f 121/353/1 106/354/1 107/355/1 
f 107/355/1 122/356/1 121/353/1 
f 122/357/7 107/358/7 96/359/7 
f 96/359/7 123/360/7 122/357/7 
# 252 faces

