# 3ds Max Wavefront OBJ Exporter v0.97b - (c)2007 guruware
# File Created: 04.12.2015 08:10:03

mtllib trap_blade.mtl

#
# object trap_blade
#

v  5.3504 1.9749 -0.0000
v  5.0354 0.2560 -0.0000
v  4.0904 -1.0239 -0.0000
v  2.5153 -1.7919 -0.0000
v  0.3101 -2.0479 -0.0000
v  -5.3504 1.9749 -0.0000
v  -5.0354 0.2560 -0.0000
v  -4.0904 -1.0239 -0.0000
v  -2.5153 -1.7919 -0.0000
v  -0.3101 -2.0479 -0.0000
v  -0.3101 -2.0479 0.7609
v  0.3101 -2.0479 0.7609
v  2.5153 -1.7919 0.7609
v  4.0904 -1.0239 0.7609
v  5.0354 0.2560 0.7609
v  5.3504 1.9749 0.7609
v  -5.3504 1.9749 0.7609
v  -2.5153 -1.7919 0.7609
v  -4.0904 -1.0239 0.7609
v  -5.0354 0.2560 0.7609
v  0.3896 -2.9530 0.3804
v  -0.3896 -2.9530 0.3804
v  3.1602 -2.6541 0.3804
v  -3.1602 -2.6541 0.3804
v  5.1392 -1.7575 0.3804
v  6.3266 -0.2632 0.3804
v  6.7224 1.9749 0.3804
v  -5.1392 -1.7575 0.3804
v  -6.3266 -0.2632 0.3804
v  -6.7224 1.9749 0.3804
v  0.4943 1.9749 0.3647
v  0.3176 1.9749 0.1880
v  0.3176 4.2300 0.1880
v  0.4943 4.2300 0.3647
v  0.1409 1.9749 0.3647
v  0.1409 4.2300 0.3647
v  0.3176 1.9749 0.5414
v  0.3176 4.2300 0.5414
v  0.3176 18.9055 0.2646
v  0.2175 18.9055 0.3647
v  0.3176 18.9055 0.4648
v  0.4177 18.9055 0.3647
v  0.3176 4.2300 0.2646
v  0.4177 4.2300 0.3647
v  0.2175 4.2300 0.3647
v  0.3176 4.2300 0.4648
# 46 vertices

vn 0.0000 0.0000 -1.0000
vn 0.0000 -0.0000 1.0000
vn 0.0219 -0.3858 -0.9223
vn 0.0222 -0.3849 -0.9227
vn -0.0222 -0.3849 -0.9227
vn -0.0219 -0.3858 -0.9223
vn 0.0847 -0.3496 -0.9331
vn 0.1050 -0.3310 -0.9378
vn -0.0847 -0.3496 0.9331
vn -0.1050 -0.3310 0.9378
vn -0.0222 -0.3849 0.9227
vn -0.0219 -0.3858 0.9223
vn 0.1783 -0.2444 -0.9532
vn 0.1886 -0.2208 -0.9569
vn 0.2426 -0.1104 -0.9638
vn 0.2414 -0.1077 -0.9644
vn 0.2660 -0.0476 -0.9628
vn 0.2669 -0.0472 -0.9626
vn -0.1783 -0.2444 0.9532
vn -0.1886 -0.2208 0.9569
vn -0.2426 -0.1104 0.9638
vn -0.2414 -0.1077 0.9644
vn -0.2660 -0.0476 0.9628
vn -0.2669 -0.0472 0.9626
vn 0.0000 1.0000 0.0000
vn 0.0219 -0.3858 0.9223
vn 0.0222 -0.3849 0.9227
vn 0.0847 -0.3496 0.9331
vn 0.1050 -0.3310 0.9378
vn -0.0847 -0.3496 -0.9331
vn -0.1050 -0.3310 -0.9378
vn 0.1783 -0.2444 0.9532
vn 0.1886 -0.2208 0.9569
vn 0.2426 -0.1104 0.9638
vn 0.2414 -0.1077 0.9644
vn 0.2660 -0.0476 0.9628
vn 0.2669 -0.0472 0.9626
vn -0.1783 -0.2444 -0.9532
vn -0.1886 -0.2208 -0.9569
vn -0.2426 -0.1104 -0.9638
vn -0.2414 -0.1077 -0.9644
vn -0.2660 -0.0476 -0.9628
vn -0.2669 -0.0472 -0.9626
vn 1.0000 -0.0000 -0.0000
vn -0.0000 0.0000 -1.0000
vn 0.0000 0.5774 -0.8165
vn 0.8165 0.5774 0.0000
vn -1.0000 0.0000 -0.0000
vn -0.8165 0.5774 0.0000
vn 0.0000 0.5773 0.8165
vn 0.0000 -1.0000 -0.0000
vn -0.0000 0.9045 -0.4264
vn 0.4264 0.9045 0.0000
vn -0.4264 0.9045 0.0000
vn -0.0000 0.9045 0.4264
vn -0.0000 -0.0000 1.0000
# 56 vertex normals

vt 0.1016 0.3391 0.0000
vt 0.1227 0.2243 0.0000
vt 0.1858 0.1388 0.0000
vt 0.2909 0.0875 0.0000
vt 0.4382 0.0704 0.0000
vt 0.8162 0.3391 0.0000
vt 0.7952 0.2243 0.0000
vt 0.7321 0.1388 0.0000
vt 0.6269 0.0875 0.0000
vt 0.4796 0.0704 0.0000
vt 0.4796 0.6323 0.0000
vt 0.4382 0.6323 0.0000
vt 0.2909 0.6152 0.0000
vt 0.1858 0.5639 0.0000
vt 0.1227 0.4784 0.0000
vt 0.1016 0.3636 0.0000
vt 0.8162 0.3636 0.0000
vt 0.6269 0.6152 0.0000
vt 0.7321 0.5639 0.0000
vt 0.7952 0.4784 0.0000
vt 0.4329 0.0100 0.0000
vt 0.4849 0.0100 0.0000
vt 0.2479 0.0300 0.0000
vt 0.6699 0.6728 0.0000
vt 0.4849 0.6927 0.0000
vt 0.1157 0.0898 0.0000
vt 0.0364 0.1896 0.0000
vt 0.0100 0.3391 0.0000
vt 0.8021 0.6129 0.0000
vt 0.8814 0.5131 0.0000
vt 0.9078 0.3636 0.0000
vt 0.0100 0.7427 0.0000
vt 0.9078 0.7427 0.0000
vt 0.8162 0.7681 0.0000
vt 0.1016 0.7681 0.0000
vt 0.4329 0.6927 0.0000
vt 0.2479 0.6728 0.0000
vt 0.6699 0.0300 0.0000
vt 0.1157 0.6129 0.0000
vt 0.0364 0.5131 0.0000
vt 0.0100 0.3636 0.0000
vt 0.8021 0.0898 0.0000
vt 0.8814 0.1896 0.0000
vt 0.9078 0.3391 0.0000
vt 0.1016 0.7173 0.0000
vt 0.8162 0.7173 0.0000
vt 0.1606 0.9213 0.0000
vt 0.1606 0.9331 0.0000
vt 0.0100 0.9331 0.0000
vt 0.0100 0.9213 0.0000
vt 0.0100 0.9694 0.0000
vt 0.0100 0.9576 0.0000
vt 0.1606 0.9576 0.0000
vt 0.1606 0.9694 0.0000
vt 0.1852 0.9213 0.0000
vt 0.1852 0.9095 0.0000
vt 0.3358 0.9095 0.0000
vt 0.3358 0.9213 0.0000
vt 0.1606 0.9095 0.0000
vt 0.0100 0.9095 0.0000
vt 0.0833 0.6911 0.0000
vt 0.0849 0.6745 0.0000
vt 0.1015 0.6761 0.0000
vt 0.0999 0.6927 0.0000
vt 0.8732 0.6824 0.0000
vt 0.8826 0.6833 0.0000
vt 0.8817 0.6927 0.0000
vt 0.8723 0.6918 0.0000
vt 0.8911 0.6757 0.0000
vt 0.9078 0.6760 0.0000
vt 0.9041 0.6796 0.0000
vt 0.8947 0.6794 0.0000
vt 0.9075 0.6927 0.0000
vt 0.9039 0.6890 0.0000
vt 0.8908 0.6924 0.0000
vt 0.8945 0.6888 0.0000
vt 0.9900 0.8700 0.0000
vt 0.9900 0.8767 0.0000
vt 0.0100 0.8767 0.0000
vt 0.0100 0.8700 0.0000
vt 0.0100 0.8455 0.0000
vt 0.0100 0.8388 0.0000
vt 0.9900 0.8388 0.0000
vt 0.9900 0.8455 0.0000
vt 0.0100 0.8060 0.0000
vt 0.0100 0.7993 0.0000
vt 0.9900 0.7993 0.0000
vt 0.9900 0.8060 0.0000
vt 0.0100 0.7927 0.0000
vt 0.9900 0.7927 0.0000
# 90 texture coords

g trap_blade
usemtl Material__212
s off
f 1/1/1 2/2/1 3/3/1 
f 1/1/1 3/3/1 4/4/1 
f 1/1/1 4/4/1 5/5/1 
f 6/6/1 1/1/1 5/5/1 
f 7/7/1 6/6/1 5/5/1 
f 8/8/1 7/7/1 5/5/1 
f 9/9/1 8/8/1 5/5/1 
f 10/10/1 9/9/1 5/5/1 
f 11/11/2 12/12/2 13/13/2 
f 11/11/2 13/13/2 14/14/2 
f 11/11/2 14/14/2 15/15/2 
f 11/11/2 15/15/2 16/16/2 
f 11/11/2 16/16/2 17/17/2 
f 18/18/2 11/11/2 17/17/2 
f 19/19/2 18/18/2 17/17/2 
f 20/20/2 19/19/2 17/17/2 
s 2
f 5/5/3 21/21/4 22/22/5 
f 22/22/5 10/10/6 5/5/3 
f 4/4/7 23/23/8 21/21/4 
f 21/21/4 5/5/3 4/4/7 
s 1
f 18/18/9 24/24/10 22/25/11 
f 22/25/11 11/11/12 18/18/9 
s 2
f 3/3/13 25/26/14 23/23/8 
f 23/23/8 4/4/7 3/3/13 
f 2/2/15 26/27/16 25/26/14 
f 25/26/14 3/3/13 2/2/15 
f 1/1/17 27/28/18 26/27/16 
f 26/27/16 2/2/15 1/1/17 
s 1
f 19/19/19 28/29/20 24/24/10 
f 24/24/10 18/18/9 19/19/19 
f 20/20/21 29/30/22 28/29/20 
f 28/29/20 19/19/19 20/20/21 
f 17/17/23 30/31/24 29/30/22 
f 29/30/22 20/20/21 17/17/23 
s off
f 30/32/25 27/33/25 1/34/25 
f 1/34/25 6/35/25 30/32/25 
s 1
f 12/12/26 11/11/12 22/25/11 
f 22/25/11 21/36/27 12/12/26 
f 13/13/28 12/12/26 21/36/27 
f 21/36/27 23/37/29 13/13/28 
s 2
f 9/9/30 10/10/6 22/22/5 
f 22/22/5 24/38/31 9/9/30 
s 1
f 14/14/32 13/13/28 23/37/29 
f 23/37/29 25/39/33 14/14/32 
f 15/15/34 14/14/32 25/39/33 
f 25/39/33 26/40/35 15/15/34 
f 16/16/36 15/15/34 26/40/35 
f 26/40/35 27/41/37 16/16/36 
s 2
f 8/8/38 9/9/30 24/38/31 
f 24/38/31 28/42/39 8/8/38 
f 7/7/40 8/8/38 28/42/39 
f 28/42/39 29/43/41 7/7/40 
f 6/6/42 7/7/40 29/43/41 
f 29/43/41 30/44/43 6/6/42 
s off
f 17/45/25 16/46/25 27/33/25 
f 27/33/25 30/32/25 17/45/25 
s 8192
f 31/47/44 32/48/45 33/49/46 
f 33/49/46 34/50/47 31/47/44 
f 32/51/45 35/52/48 36/53/49 
f 36/53/49 33/54/46 32/51/45 
f 35/55/48 37/56/2 38/57/50 
f 38/57/50 36/58/49 35/55/48 
f 37/59/2 31/47/44 34/50/47 
f 34/50/47 38/60/50 37/59/2 
s off
f 35/61/51 32/62/51 31/63/51 
f 31/63/51 37/64/51 35/61/51 
f 39/65/25 40/66/25 41/67/25 
f 41/67/25 42/68/25 39/65/25 
s 8192
f 34/69/47 33/70/46 43/71/52 
f 43/71/52 44/72/53 34/69/47 
f 33/70/46 36/73/49 45/74/54 
f 45/74/54 43/71/52 33/70/46 
f 36/73/49 38/75/50 46/76/55 
f 46/76/55 45/74/54 36/73/49 
f 38/75/50 34/69/47 44/72/53 
f 44/72/53 46/76/55 38/75/50 
f 44/77/53 43/78/52 39/79/1 
f 39/79/1 42/80/44 44/77/53 
f 43/81/52 45/82/54 40/83/48 
f 40/83/48 39/84/1 43/81/52 
f 45/85/54 46/86/55 41/87/56 
f 41/87/56 40/88/48 45/85/54 
f 46/86/55 44/89/53 42/90/44 
f 42/90/44 41/87/56 46/86/55 
# 84 faces

